<?xml version="1.0" standalone="no"?>
<!DOCTYPE svg PUBLIC "-//W3C//DTD SVG 20010904//EN"
 "http://www.w3.org/TR/2001/REC-SVG-20010904/DTD/svg10.dtd">
<svg version="1.0" xmlns="http://www.w3.org/2000/svg"
 width="24.000000pt" height="24.000000pt" viewBox="0 0 24.000000 24.000000"
 preserveAspectRatio="xMidYMid meet">

<g transform="translate(0.000000,24.000000) scale(0.100000,-0.100000)"
fill="#000000" stroke="none">
<path d="M20 220 c-17 -17 -20 -33 -20 -100 0 -67 3 -83 20 -100 17 -17 33
-20 100 -20 109 0 120 11 120 120 0 67 -3 83 -20 100 -17 17 -33 20 -100 20
-67 0 -83 -3 -100 -20z m188 -12 c16 -16 16 -160 0 -176 -7 -7 -42 -12 -88
-12 -46 0 -81 5 -88 12 -16 16 -16 160 0 176 16 16 160 16 176 0z"/>
<path d="M176 191 c-4 -5 -2 -12 3 -15 5 -4 12 -2 15 3 4 5 2 12 -3 15 -5 4
-12 2 -15 -3z"/>
<path d="M80 160 c-11 -11 -20 -29 -20 -40 0 -26 34 -60 60 -60 26 0 60 34 60
60 0 26 -34 60 -60 60 -11 0 -29 -9 -40 -20z m70 -15 c26 -32 -13 -81 -47 -59
-10 6 -19 19 -21 28 -8 38 43 61 68 31z"/>
</g>
</svg>
